PathFileType	4	(X/Y/Z)	Run_300 01
DataRate	CameraRate	NumFrames	NumMarkers	Units	OrigDataRate	OrigDataStartFrame	OrigNumFrames
120	120	6	42	mm	120	83	128
Frame#	Time	LASI			LPSI			RPSI			RTH1			RTH2			RTH3			LTH1			LTH2			LTH3			RTB1			RTB2			RTB3			LTB1			LTB2			RCAL			RTOE			RMT5			LCAL			LMT5			LACR			RACR			CLAV			C7			RUA1			RUA2			RUA3			RLEL			RMEL			LUA1			LUA2			LUA3			LLEL			LMEL			RFAsuperior			RFAradius			RFAulna			LFAsuperior			LFAradius			LFAulna			LTB3			LTOE			RASI		
		X1	Y1	Z1	X2	Y2	Z2	X3	Y3	Z3	X4	Y4	Z4	X5	Y5	Z5	X6	Y6	Z6	X7	Y7	Z7	X8	Y8	Z8	X9	Y9	Z9	X10	Y10	Z10	X11	Y11	Z11	X12	Y12	Z12	X13	Y13	Z13	X14	Y14	Z14	X15	Y15	Z15	X16	Y16	Z16	X17	Y17	Z17	X18	Y18	Z18	X19	Y19	Z19	X20	Y20	Z20	X21	Y21	Z21	X22	Y22	Z22	X23	Y23	Z23	X24	Y24	Z24	X25	Y25	Z25	X26	Y26	Z26	X27	Y27	Z27	X28	Y28	Z28	X29	Y29	Z29	X30	Y30	Z30	X31	Y31	Z31	X32	Y32	Z32	X33	Y33	Z33	X34	Y34	Z34	X35	Y35	Z35	X36	Y36	Z36	X37	Y37	Z37	X38	Y38	Z38	X39	Y39	Z39	X40	Y40	Z40	X41	Y41	Z41	X42	Y42	Z42	

83	  0.691667	725.449973	990.289147	-519.897510	559.641597	1019.029730	-416.033300	562.947044	1020.421021	-330.709334	750.935901	831.182672	-215.320178	864.686014	755.740620	-237.404115	854.741895	621.982109	-219.170955	666.829731	848.008917	-551.609504	708.830957	729.764756	-533.433377	621.981939	599.457280	-518.167852	821.079510	447.367032	-281.122873	743.608770	451.346923	-228.804096	655.334492	380.955265	-294.608540	609.008608	357.033290	-434.254692	524.874745	275.970125	-478.895437	490.092217	422.055620	-304.963638	562.288679	214.502019	-305.137469	527.920433	238.196258	-217.412930	341.923143	125.398014	-405.359821	522.475239	 59.095063	-478.407085	739.978164	1426.839399	-576.111805	704.731786	1450.648217	-200.422810	817.649693	1401.597265	-349.190304	694.201113	1495.789059	-395.630354	645.652744	1360.539326	-138.300893	642.811444	1290.074455	-132.510691	539.149886	1306.348924	-117.731327	539.817012	1220.154272	-70.023208	495.496172	1207.401315	-146.389068	713.946529	1355.496277	-633.361741	652.078718	1287.309569	-624.706541	704.495263	1272.082245	-680.288839	692.554132	1173.112217	-733.363299	647.625471	1120.536251	-674.698032	613.025989	1177.424804	-84.211265	747.551828	1110.674322	-156.878375	701.171127	1060.014285	-155.250358	761.004616	1180.784690	-704.631519	875.551622	1185.672809	-569.979874	892.888102	1130.325351	-604.441977	504.016526	199.758538	-403.245142	552.468185	 70.891385	-392.410362	730.717573	998.773380	-262.957655	
84	  0.700000	726.962954	993.167338	-520.514624	561.469734	1024.427247	-417.366888	564.334966	1026.424450	-331.562485	754.299143	839.819716	-215.702912	868.366595	765.929873	-238.698513	860.616542	630.914354	-220.041761	665.334305	851.295079	-550.847469	702.093423	732.057584	-531.804507	608.344222	605.744439	-516.272746	835.391683	451.709616	-281.841167	757.836906	449.684291	-229.499911	674.805979	372.192371	-294.798599	588.520212	363.207759	-433.779026	503.802476	283.428924	-479.540670	506.684792	400.057382	-306.227836	596.248722	199.213968	-303.769397	560.067950	220.856298	-217.216706	321.465881	134.106390	-407.674733	497.429379	 59.279406	-478.142563	743.458266	1433.456664	-574.002999	701.650010	1456.488212	-199.881694	817.016439	1408.520721	-346.102401	694.322377	1501.368527	-394.263527	641.321129	1367.918469	-138.018303	638.258004	1297.442530	-131.804122	534.176249	1314.350136	-119.041130	533.405913	1228.830663	-71.148531	490.275008	1215.512782	-148.519211	719.035351	1361.948881	-631.758798	656.594633	1294.619037	-625.312303	711.166034	1277.980067	-678.222029	698.934634	1178.683050	-730.622203	651.134877	1127.276309	-672.947720	607.161336	1187.091176	-83.106258	743.270463	1120.296850	-151.848731	697.592409	1069.294378	-151.503736	766.421003	1186.769804	-700.257212	876.743158	1193.729267	-562.627940	894.380085	1137.346816	-594.574152	483.018776	205.758434	-404.571667	529.254844	 71.413873	-392.847578	731.422048	1005.283208	-263.487068	
85	  0.708333	728.947967	996.491098	-520.630692	563.757153	1030.050590	-419.135936	566.113088	1032.537003	-332.828628	757.419013	848.212182	-216.070552	871.437597	775.495704	-239.801077	865.054190	639.203863	-221.001171	664.039256	854.824609	-550.083704	695.957005	734.885021	-530.176683	596.061442	612.671451	-514.771515	848.677378	455.656653	-282.556990	771.535879	447.303426	-230.322824	694.625657	363.469663	-295.712765	569.213503	370.733441	-433.718573	484.066533	292.230297	-480.804219	524.651664	376.969777	-307.873402	631.190643	184.502267	-302.017185	593.370715	204.116583	-216.849909	302.352997	144.303448	-410.150966	472.796577	 59.577414	-478.042770	746.804984	1440.209682	-571.809470	698.812136	1462.303006	-199.121140	816.209313	1415.566752	-343.065434	694.503493	1507.002184	-392.815238	637.535495	1375.096227	-137.597213	634.191156	1304.675328	-130.941099	529.819313	1322.158517	-120.031491	527.551406	1237.306512	-71.938529	485.630948	1223.403048	-150.207136	723.742948	1368.843544	-630.143460	660.702995	1302.475286	-626.224629	717.206494	1284.344270	-676.230118	704.535002	1184.986305	-728.281310	653.929431	1134.516702	-672.004709	601.705909	1196.357497	-81.731168	739.386667	1129.729426	-146.891636	694.348655	1078.207265	-147.398548	770.969755	1193.347086	-696.324137	876.811951	1201.510767	-555.583241	894.746806	1144.517398	-585.469510	463.321684	213.071302	-406.247319	506.509454	 71.944655	-393.311323	732.494835	1011.858763	-264.387726	
86	  0.716667	731.337435	1000.048707	-520.237371	566.429934	1035.812084	-421.191981	568.267607	1038.780602	-334.533132	760.313405	856.319232	-216.376412	873.853174	784.213194	-240.641963	867.900888	646.752587	-222.274466	662.935314	858.474162	-549.302458	690.451698	738.079640	-528.496374	584.915108	620.083164	-513.656882	860.904856	459.131789	-283.318459	784.698561	444.196493	-231.275079	714.829983	354.651109	-296.964626	551.347416	379.247977	-434.135443	465.829204	301.968118	-482.577122	544.084235	353.064981	-309.732198	667.164499	170.802420	-300.451583	627.647958	188.113537	-216.406502	284.742387	155.764137	-412.613949	448.797617	 60.071408	-478.217706	750.022300	1446.909574	-569.559783	696.187158	1468.005936	-198.209767	815.265121	1422.478137	-340.120656	694.797065	1512.569955	-391.376016	634.241824	1381.931734	-137.045800	630.583704	1311.573701	-129.923885	526.020094	1329.625453	-120.715134	522.258082	1245.450761	-72.395532	481.480587	1230.948294	-151.465318	728.118880	1375.947581	-628.551870	664.418517	1310.632792	-627.253507	722.551182	1290.990837	-674.429963	709.401392	1191.807965	-726.451631	655.976182	1142.115473	-671.764886	596.677021	1205.139665	-80.154161	735.881511	1138.765428	-142.079177	691.363956	1086.638215	-142.892219	774.730389	1200.294153	-692.847759	875.957670	1208.967823	-549.037396	894.215584	1151.672480	-577.348539	445.111412	221.448647	-408.243895	484.148423	 72.309462	-393.898209	733.917287	1018.528234	-265.673468	
87	  0.725000	734.097852	1003.580902	-519.380041	569.285265	1041.643128	-423.248662	570.673916	1045.094216	-336.436987	762.981672	864.153991	-216.563312	875.579012	791.878333	-241.208443	869.056623	653.338272	-224.053266	662.192425	862.156639	-548.519671	685.611325	741.487019	-526.699604	574.714856	627.908628	-512.851937	872.067566	462.025763	-284.106155	797.336390	440.431368	-232.278162	735.293412	345.663092	-298.170607	535.248927	388.296864	-435.042321	449.222191	312.181441	-484.660403	565.021480	328.678209	-311.620003	704.070371	158.469562	-299.291557	662.762197	173.033786	-216.004178	268.867507	168.303621	-415.011907	425.590018	 60.854428	-478.671639	753.161506	1453.406838	-567.278100	693.765905	1473.466786	-197.293761	814.298923	1428.991438	-337.265807	695.220932	1517.963706	-390.027374	631.338032	1388.362647	-136.383152	627.404751	1318.008317	-128.795442	522.715861	1336.650882	-121.109487	517.565225	1253.159938	-72.524603	477.727632	1238.061395	-152.281496	732.273499	1383.062991	-627.025328	667.791292	1318.927705	-628.275403	727.233464	1297.769188	-672.944158	713.571229	1198.900627	-725.152954	657.266726	1149.967591	-672.071217	592.134676	1213.396931	-78.429728	732.729148	1147.257093	-137.493736	688.655600	1094.545275	-138.046478	777.794116	1207.356637	-689.879470	874.367381	1216.101387	-543.162124	892.973055	1158.674444	-570.328124	428.604125	230.463409	-410.526967	462.171001	 72.506674	-394.636136	735.591621	1025.264765	-267.171650	
88	  0.733333	737.160020	1006.915955	-518.065389	572.126122	1047.448547	-425.010699	573.093329	1051.306778	-338.138354	765.371973	871.659078	-216.598039	876.611264	798.332941	-241.496229	868.570470	658.702797	-226.369739	661.979757	865.857642	-547.778148	681.450686	745.028793	-524.835129	565.596502	635.969406	-512.320128	882.167732	464.246003	-284.871535	809.468446	436.140359	-233.193295	755.809558	336.589313	-299.147144	521.267107	397.321639	-436.403702	434.381407	322.400992	-486.838246	587.406623	304.152026	-313.335001	741.620204	147.776285	-298.441729	698.627635	159.135612	-215.690640	254.891506	181.788039	-417.323207	403.170989	 62.040383	-479.326638	756.300966	1459.576920	-564.997064	691.556569	1478.542525	-196.495414	813.460434	1434.902798	-334.465695	695.761372	1523.087450	-388.801986	628.724757	1394.362926	-135.634884	624.617481	1323.929796	-127.609467	519.853437	1343.147755	-121.223614	513.492919	1260.322234	-72.328501	474.370075	1244.648287	-152.647548	736.302619	1390.036706	-625.582706	670.874819	1327.245213	-629.259383	731.328365	1304.545431	-671.815174	717.050407	1206.030078	-724.312656	657.858929	1157.950303	-672.771150	588.128623	1221.065625	-76.566582	729.943735	1155.127273	-133.124874	686.328389	1101.920732	-132.988284	780.226644	1214.295891	-687.464090	872.200243	1222.869781	-538.010313	891.162544	1165.378855	-564.426588	413.965497	239.608227	-413.020783	440.691306	 72.818510	-395.504958	737.327678	1031.956742	-268.583694	
